<svg width="9" height="13" viewBox="0 0 9 13" fill="none" xmlns="http://www.w3.org/2000/svg">
<path d="M7.9463 7.01132C7.1593 6.65359 7.73166 5.86659 7.66011 5.36577C7.66011 5.15113 7.26659 4.9365 7.30236 4.75764C7.30236 4.72187 7.76743 4.18526 7.66011 3.93485L8.05361 4.50723C8.12516 3.57713 8.84061 2.11044 7.37392 3.32672L7.55279 2.75434L6.76579 3.25516L6.65847 2.6828C5.62106 3.39826 5.62104 2.61126 5.19177 2.43239C5.04868 2.39662 4.7625 2.53969 4.69095 2.46815C4.69095 2.46815 4.51207 1.82424 4.51207 1.71692C4.44053 1.18033 4.69092 0.643734 4.15432 0.321777C3.97546 1.53806 3.68929 0.929915 2.83074 0.822596C2.54456 1.03723 3.26003 2.25353 3.51044 2.43239L2.43724 3.00475C2.86651 3.21938 3.08116 3.54134 3.00962 4.04216C2.1153 3.8633 2.72344 4.57875 2.5088 4.90071C2.5088 4.93648 1.61444 5.29421 1.57867 5.29421C1.43558 5.29421 1.25673 5.04382 1.14941 5.11536C1.14941 5.11536 0.791715 5.7235 0.791715 5.75928C0.684396 6.22432 0.970556 6.54627 0.934783 6.72513C0.934783 6.83245 0.469709 7.19019 0.684346 7.54792C1.50712 7.47638 1.14944 7.54791 1.29253 7.97718C1.32831 8.12027 1.47137 8.19184 1.54292 8.33493C1.75755 8.83575 1.47139 8.76419 1.39985 9.0146C1.29253 9.33655 1.47138 9.69428 1.32829 10.0162C1.14942 10.4813 0.684385 10.1593 0.61284 10.2309C0.469748 10.3382 0.290877 11.5187 0.32665 11.8049C0.720152 11.3041 1.25674 11.3756 1.72179 11.6976C1.9722 11.8407 2.22262 12.5561 2.5088 12.5919C2.72344 12.5919 3.08115 12.413 3.33156 12.4846C3.36733 11.9122 2.83073 11.9122 3.15269 11.9122C3.00959 11.5903 2.97383 11.2325 3.04537 11.0179C3.04537 10.9464 3.22423 10.8748 3.15269 10.7317C2.61609 10.8748 2.97382 10.2309 2.8665 10.1593C2.8665 10.1593 2.58031 10.1593 2.47299 10.1593C2.58031 9.19346 3.29579 8.54957 4.22589 8.97885C3.68929 8.44225 5.19176 7.90564 4.90558 7.61946C4.76249 7.47637 4.33322 8.26336 3.79663 7.97718C3.65354 7.90563 3.86814 7.29751 4.04701 7.26173C4.1901 7.26173 5.12022 6.72514 5.19177 6.61782C5.19177 6.58205 4.76248 5.86658 5.62103 5.93813C5.83566 5.93813 6.26493 6.26009 6.22916 6.47472C6.22916 6.65359 5.5495 7.08286 6.4796 7.22595C6.69423 7.26173 6.76578 7.08286 6.98042 7.08286C7.2666 7.08286 7.66008 7.36906 7.91049 7.0471L7.9463 7.01132Z" fill="url(#paint0_linear_993_1800)" stroke="url(#paint1_linear_993_1800)" stroke-width="0.643913" stroke-linecap="round" stroke-linejoin="round"/>
<defs>
<linearGradient id="paint0_linear_993_1800" x1="6.00485" y1="-19.0016" x2="-4.15486" y2="-17.454" gradientUnits="userSpaceOnUse">
<stop stop-color="#BDA461"/>
<stop offset="0.245192" stop-color="#FDDE8A"/>
<stop offset="0.5" stop-color="#BDA461"/>
<stop offset="0.754808" stop-color="#FDDE8A"/>
<stop offset="1" stop-color="#BDA461"/>
</linearGradient>
<linearGradient id="paint1_linear_993_1800" x1="6.00485" y1="-19.0016" x2="-4.15486" y2="-17.454" gradientUnits="userSpaceOnUse">
<stop stop-color="#BDA461"/>
<stop offset="0.245192" stop-color="#FDDE8A"/>
<stop offset="0.5" stop-color="#BDA461"/>
<stop offset="0.754808" stop-color="#FDDE8A"/>
<stop offset="1" stop-color="#BDA461"/>
</linearGradient>
</defs>
</svg>
