<svg width="134" height="155" viewBox="0 0 134 155" fill="none" xmlns="http://www.w3.org/2000/svg">
<path d="M74.2447 113.457C73.3862 113.529 69.7016 110.202 70.9179 109.916C72.1341 109.629 73.7439 109.522 73.2073 108.413C72.6707 107.34 75.6399 106.803 73.887 105.694C72.1342 104.621 72.5276 103.798 73.7439 103.512C74.9602 103.226 77.7862 101.616 75.6399 100.686C73.4935 99.7561 72.2415 98.7902 72.1341 97.2878C71.991 95.7853 72.5634 95.3918 70.6674 95.1056C68.7715 94.8194 66.5893 92.3869 66.1958 90.4194C65.8023 88.4519 63.7633 85.0892 62.547 83.4437C61.3307 81.8339 58.5046 80.7249 57.5388 80.868C56.6087 81.0111 55.929 76.5395 54.2835 76.3964C52.6737 76.2533 50.9924 75.4663 52.0298 74.5004C53.0672 73.5346 54.82 72.8906 56.0363 74.5004C57.2526 76.1102 60.2218 76.5395 60.7584 75.037C61.295 73.5346 60.9015 71.2451 63.0478 70.8516C65.1942 70.4581 71.5618 69.7784 73.887 66.8092C76.1765 63.8401 80.1115 59.6547 81.3278 58.2953C82.5441 56.9359 82.401 55.3261 84.0465 55.04C85.6563 54.7538 88.2319 52.8578 89.3409 53.6806C90.4141 54.5034 91.0938 57.7229 92.5962 58.0091C94.0987 58.2953 95.8516 52.0708 95.8516 52.0708C95.8516 52.0708 96.5312 47.3488 91.2369 47.4561C85.9425 47.5992 83.7961 49.0659 82.2936 49.209C80.7912 49.3521 81.2205 50.4253 82.9733 50.8188C84.7262 51.2123 85.1913 50.8188 85.2986 51.3553C85.4059 51.8919 83.3669 53.1082 81.2205 52.4285C79.0383 51.7488 71.4903 50.8188 70.3813 51.7489C69.3081 52.6789 69.5585 56.614 68.0918 55.3977C66.5894 54.1814 66.5893 55.5408 64.9796 55.7912C63.3698 56.0774 59.1486 56.1847 58.7551 54.5749C58.3616 52.9651 58.7551 51.8562 57.5388 52.6789C56.3225 53.5017 54.9631 53.5017 54.033 55.2546C53.103 57.0075 49.7045 61.1929 48.8817 62.9815C48.059 64.7344 47.3793 65.271 45.2329 65.0206C43.0507 64.7344 43.3369 62.445 40.9044 63.5181C38.4718 64.5913 37.9352 65.0206 37.1125 63.1246C36.2897 61.2287 35.61 55.5408 34.1433 55.2904C32.6409 55.0042 30.6376 56.1132 28.992 54.0741C27.3822 52.035 24.3773 46.3471 24.8066 42.4479C25.2001 38.5129 26.309 34.0413 27.3822 31.6087C28.4554 29.1761 33.6067 24.311 36.1823 24.5614C38.758 24.8476 41.5841 27.6737 45.376 27.2802C49.1679 26.8867 50.5273 26.0639 52.9598 26.3501C55.3924 26.6363 56.2152 23.7744 58.1112 24.5972C60.0071 25.42 60.8299 27.9956 63.1193 27.459C65.4088 26.9224 69.2008 25.8493 73.3862 25.8493C77.5716 25.8493 87.0515 24.7761 88.6613 26.3858C90.271 27.9956 90.5572 30.1778 95.1719 30.3209C99.7866 30.464 111.27 29.1046 114.525 27.8883C117.78 26.672 119.533 21.6638 121.143 20.1614C122.753 18.6589 127.511 14.867 128.584 12.7206C129.657 10.5384 133.055 5.81642 133.055 5.81642C133.055 5.81642 133.199 2.56108 131.303 1.3448C129.407 0.128523 127.797 0.128521 126.831 0.665115C125.901 1.20171 124.255 2.56109 124.542 3.92046C124.828 5.27983 124.935 6.88961 121.715 7.31888C118.46 7.71238 117.924 8.39207 118.889 9.07175C119.819 9.75144 122.145 11.5043 119.712 11.5043C117.28 11.5043 115.92 10.6815 115.241 12.3271C114.561 13.9369 114.418 14.7596 111.735 15.9759C109.016 17.1922 108.229 19.4817 103.614 18.6947C98.9996 17.8719 92.6678 14.6523 91.0222 15.8686C89.4125 17.0849 88.3035 15.332 86.6937 16.0117C85.084 16.6914 85.8709 20.7337 83.5815 19.267C81.292 17.7646 74.1016 14.545 72.635 14.545C71.1683 14.545 66.1243 15.6182 65.3373 14.545C64.5145 13.4718 61.8316 13.6149 59.2559 14.0084C56.6803 14.4019 54.2477 12.506 54.6412 11.0393C55.0347 9.53681 53.8184 9.28639 52.459 9.67989C51.0997 10.0734 47.3077 8.07011 44.8752 8.17743C42.4426 8.32052 41.0832 9.10753 41.2263 10.8962C41.3694 12.649 41.763 14.4019 39.4735 15.2247C37.184 16.0475 38.7938 19.267 36.7547 19.4101C34.7157 19.5532 31.6034 19.8036 31.4603 17.8003C31.3172 15.7613 30.7807 14.0084 29.9579 15.6182C29.1351 17.228 30.888 19.9467 27.7757 20.4833C24.6635 21.0199 25.2001 21.9858 25.4863 23.7387C25.7725 25.4915 23.7334 24.5614 22.7675 26.5647C21.8374 28.6038 22.0878 30.0705 20.8715 30.7501C19.6553 31.4298 19.6553 33.2185 20.8715 33.7908C22.0878 34.399 22.2309 37.7616 20.5853 37.6543C18.9756 37.5112 18.4032 34.6852 17.6162 36.2949C16.7935 37.9047 21.4081 40.6235 20.1918 42.1259C18.9756 43.6284 16.5073 46.5975 18.7609 48.2073C21.0146 49.8171 23.5903 53.2155 21.8374 53.3586C20.0845 53.5017 19.7626 50.3895 18.7609 49.9602C17.7593 49.5667 18.1886 51.1765 16.2926 52.2497C14.3966 53.3229 14.6828 53.2513 13.717 56.4709C12.7869 59.6904 10.6047 60.0839 10.0682 62.123C9.53156 64.1621 9.92505 66.4515 9.38846 68.4906C8.85186 70.5296 10.9982 72.5329 10.8909 74.8582C10.7478 77.1476 9.38842 76.7541 8.06482 77.8273C6.70545 78.9005 7.52823 81.6192 6.16886 83.229C4.80949 84.8388 8.99493 85.9478 6.84856 87.951C4.66641 89.9901 4.12982 88.8811 2.37694 91.2064C0.624069 93.4958 0.624104 95.2487 0.624104 97.1447C0.624104 99.0406 -0.0555816 104.299 0.624104 106.195C1.30379 108.091 1.16066 110.524 4.66641 108.628C8.17215 106.732 10.6047 108.342 12.2503 107.555C13.8601 106.732 14.969 107.268 14.4325 109.307C13.8959 111.347 13.5023 111.883 15.5056 117.821C17.5447 123.76 17.4016 129.34 16.1853 131.487C14.969 133.669 13.7527 134.885 14.2893 136.888C14.8259 138.927 14.8259 137.568 12.6796 141.61C10.4974 145.653 10.1039 147.978 11.8568 150.661C13.6097 153.38 13.8958 150.375 15.6487 152.7C17.4016 154.989 18.7967 154.131 18.7967 154.131C20.7284 154.31 21.9805 150.947 23.7334 151.484C25.4863 152.02 29.5286 151.412 29.5286 151.412C30.6733 151.019 31.353 150.947 31.818 151.877C32.2831 152.807 33.7498 154.56 34.4295 153.487C35.1092 152.414 34.4295 147.835 32.4977 146.046C30.566 144.222 30.2798 144.15 30.4945 142.433C30.7091 140.68 29.4213 137.997 31.2457 137.103C33.0701 136.173 33.8571 133.74 33.7141 132.202C33.571 130.664 31.8896 126.836 32.3189 123.617C32.784 120.397 29.5643 118.251 31.7107 116.426C33.8571 114.602 32.6409 107.698 32.6409 107.698L33.5709 103.262C33.5709 103.262 30.4945 100.364 30.3514 99.2911C30.2083 98.2179 30.2083 96.6796 32.1758 95.4634C34.1433 94.2471 37.5417 90.8486 39.2231 90.5625C40.9044 90.2763 45.5191 90.5625 46.1272 91.4926C46.7353 92.4227 44.1239 94.3902 45.5191 95.0341C46.9142 95.6422 47.6655 97.1805 47.3435 98.2536C47.0216 99.3268 46.1272 104.371 44.589 105.623C43.0508 106.839 41.3694 108.842 44.2671 111.311C47.1647 113.779 50.8493 116.069 51.9225 117.428C52.9956 118.823 54.5338 119.252 56.3583 119.896C58.1827 120.504 59.1128 123.581 57.4315 123.867C55.7501 124.153 56.9664 126.765 56.2152 128.482C55.464 130.163 54.5339 133.383 56.8233 134.599C59.1128 135.815 63.7275 136.888 65.2657 137.21C66.804 137.532 68.6284 137.21 68.1633 135.672C67.6983 134.134 66.1601 132.131 68.2349 131.057C70.3097 129.984 72.313 127.695 74.7455 128.16C77.2139 128.625 78.2871 127.409 79.5033 128.303C80.7196 129.233 82.1148 130.127 82.401 128.446C82.401 128.446 85.2986 127.981 85.2986 125.978C85.2986 123.974 84.0823 119.217 83.0091 120.004C81.9359 120.755 80.7197 122.293 80.2546 121.22C79.7896 120.147 81.7929 117.678 79.3245 117.249C76.8562 116.784 75.4968 114.173 74.2805 113.421L74.2447 113.457Z" fill="#1E6055" stroke="#2E7C68" stroke-width="0.643913" stroke-linecap="round" stroke-linejoin="round"/>
</svg>
