<svg width="36" height="35" viewBox="0 0 36 35" fill="none" xmlns="http://www.w3.org/2000/svg">
<path d="M0.622707 10.4377C2.05362 12.4768 2.87641 12.0833 3.77073 12.6914C4.66505 13.2995 7.34802 13.1565 9.60172 12.6914C11.8554 12.2264 12.1416 14.0508 13.7871 14.4801C15.4327 14.9451 13.0359 17.9142 15.5758 19.5598C18.1157 21.2054 17.6864 21.4915 17.2214 23.316C16.7563 25.1046 16.9352 27.3583 19.01 28.5388C21.1206 29.7193 22.5873 25.9989 23.8036 29.29C24.9841 32.5812 27.5597 35.7292 29.7776 33.7974C32.0313 31.8657 30.3858 29.8982 31.4232 27.8234C32.4606 25.7128 36.3599 22.8867 34.8574 22.4216C33.3549 21.9566 27.3808 21.0623 26.0215 20.0249C24.6621 18.9874 20.6198 12.5483 21.371 10.4377C22.1222 8.32711 21.8003 7.43278 20.3336 5.64414C18.8311 3.85549 17.7937 0.564379 16.1482 0.707471C14.5026 0.850562 11.4977 -0.65189 12.714 1.45871C13.8945 3.56931 15.2538 8.50598 13.4652 7.00351C11.6765 5.50105 11.5334 4.32054 10.7822 2.81807C10.031 1.31561 10.1741 1.02943 7.92039 2.06685C5.66669 3.10426 3.41299 3.10427 4.77237 5.35796C6.13174 7.61166 5.05855 7.89783 3.12681 8.50597C1.19508 9.11411 -0.307383 9.14989 0.58694 10.4377H0.622707Z" fill="#1E6055" stroke="#2E7C68" stroke-width="0.643913" stroke-linecap="round" stroke-linejoin="round"/>
</svg>
